<svg width="17" height="16" viewBox="0 0 17 16" fill="none" xmlns="http://www.w3.org/2000/svg">
<path d="M6.55552 0.666626V1.99996H10.5555V0.666626H11.8889V1.99996H14.5555C14.9237 1.99996 15.2222 2.29844 15.2222 2.66663V13.3333C15.2222 13.7015 14.9237 14 14.5555 14H2.55552C2.18733 14 1.88885 13.7015 1.88885 13.3333V2.66663C1.88885 2.29844 2.18733 1.99996 2.55552 1.99996H5.22219V0.666626H6.55552ZM13.8889 7.33329H3.22219V12.6666H13.8889V7.33329ZM5.88885 8.66663V9.99996H4.55552V8.66663H5.88885ZM9.22219 8.66663V9.99996H7.88885V8.66663H9.22219ZM12.5555 8.66663V9.99996H11.2222V8.66663H12.5555ZM5.22219 3.33329H3.22219V5.99996H13.8889V3.33329H11.8889V4.66663H10.5555V3.33329H6.55552V4.66663H5.22219V3.33329Z" fill="#3C424E"/>
</svg>
