<svg width="285" height="55" viewBox="0 0 285 55" fill="none" xmlns="http://www.w3.org/2000/svg">
<path d="M42.4913 26.235C37.7028 22.99 31.5933 24.31 28.4009 29.205C25.7039 33.275 21.686 33.77 20.0898 33.77C14.971 33.77 11.5035 30.195 10.4577 26.455C10.4577 26.4 10.4577 26.4 10.4027 26.345C10.4027 26.29 10.4027 26.29 10.3476 26.235C9.96234 24.695 9.85226 23.925 9.85226 22.275C9.85226 13.365 18.989 3.465 32.1437 3.465C45.6286 3.465 53.3343 13.695 55.3158 19.415C55.2607 19.305 55.2607 19.195 55.2057 19.085C51.3528 8.03 40.7851 0 28.3459 0C12.7144 0 0 12.705 0 28.325C0 42.35 10.0724 54.285 24.1078 54.285C35.281 54.285 42.7665 48.015 46.2341 39.38C48.1054 34.705 46.7845 29.15 42.4913 26.235Z" fill="#003863"/>
<path d="M55.4811 20.0202C53.8299 14.4652 46.0692 3.52022 32.1439 3.52022C18.9892 3.52022 9.85248 13.4202 9.85248 22.3302C9.85248 23.9802 9.96256 24.7502 10.3478 26.2902C10.1827 25.6302 10.0726 24.9152 10.0726 24.2552C10.0726 15.0152 19.3745 8.58022 28.8965 8.58022C41.831 8.52522 52.2887 19.0302 52.2887 31.9002C52.2887 42.0202 46.4544 50.7652 37.9782 55.0002C48.8762 51.0402 56.692 40.5902 56.692 28.3252C56.692 25.4102 56.3067 22.8802 55.4811 20.0202Z" fill="#E4032E"/>
<path d="M83.6065 37.0155H80.3591V18.9205H70.3967V16.0055H83.6065V37.0155ZM90.1012 14.4105H93.3486V40.3705H90.1012V14.4105Z" fill="#575756"/>
<path d="M97.752 34.5954V31.7354H121.64V34.5954H111.292V40.4254H108.045V34.5954H97.752ZM119.988 16.8854V19.6354H114.87C115.86 20.7904 116.356 22.1104 116.356 23.4854C116.356 24.3104 116.191 25.1354 115.805 25.8504C115.42 26.6204 114.98 27.2804 114.374 27.8304C113.769 28.3804 113.053 28.8204 112.283 29.1504C111.457 29.4804 110.631 29.6454 109.696 29.6454C108.76 29.6454 107.934 29.4804 107.109 29.1504C106.283 28.8204 105.623 28.3804 105.017 27.8304C104.412 27.2804 103.917 26.6204 103.586 25.8504C103.201 25.0804 103.036 24.3104 103.036 23.4854C103.036 22.0554 103.531 20.7904 104.522 19.6354H99.4032V16.8854H107.934V14.0254H111.402V16.8854H119.988ZM113.218 23.4854C113.218 22.5504 112.888 21.7254 112.173 21.0654C111.512 20.4054 110.687 20.0754 109.696 20.0754C108.76 20.0754 107.934 20.4054 107.219 21.0654C106.558 21.7254 106.173 22.5504 106.173 23.4854C106.173 24.4204 106.503 25.2454 107.219 25.9054C107.879 26.5654 108.705 26.8954 109.696 26.8954C110.631 26.8954 111.457 26.5654 112.173 25.9054C112.888 25.3004 113.218 24.4754 113.218 23.4854Z" fill="#575756"/>
<path d="M138.592 26.7305C138.262 28.1605 137.601 29.4255 136.5 30.4705C135.84 31.1305 135.014 31.6255 134.078 32.0655C133.143 32.4505 132.152 32.6705 131.161 32.6705C130.116 32.6705 129.125 32.4505 128.244 32.0655C127.308 31.6805 126.538 31.1305 125.822 30.4705C125.107 29.8105 124.556 29.0405 124.171 28.1055C123.786 27.2255 123.566 26.2905 123.566 25.3005C123.566 24.3105 123.786 23.3755 124.171 22.4955C124.556 21.6155 125.107 20.8455 125.822 20.1305C126.483 19.4705 127.308 18.9755 128.244 18.5905C129.18 18.2055 130.171 17.9855 131.161 17.9855C132.207 17.9855 133.198 18.2055 134.078 18.5905C135.014 18.9755 135.785 19.5255 136.5 20.1305C137.546 21.1205 138.206 22.3855 138.592 23.8705H140.959V14.4655H143.986V40.2605H140.959V26.7305H138.592ZM135.565 25.3005C135.565 24.6955 135.454 24.1455 135.234 23.5955C135.014 23.0455 134.684 22.5505 134.299 22.1655C133.913 21.7805 133.418 21.4505 132.923 21.2305C132.372 21.0105 131.822 20.9005 131.216 20.9005C130.611 20.9005 130.06 21.0105 129.51 21.2305C128.96 21.4505 128.519 21.7805 128.134 22.1655C127.749 22.5505 127.419 23.0455 127.198 23.5955C126.978 24.1455 126.868 24.7505 126.868 25.3005C126.868 25.9055 126.978 26.4555 127.198 27.0055C127.419 27.5555 127.749 28.0505 128.134 28.4355C128.519 28.8205 129.015 29.1505 129.51 29.3705C130.06 29.5905 130.611 29.7005 131.216 29.7005C131.822 29.7005 132.372 29.5905 132.923 29.3705C133.473 29.1505 133.913 28.8205 134.299 28.4355C134.684 28.0505 135.014 27.5555 135.234 27.0055C135.454 26.5105 135.565 25.9055 135.565 25.3005ZM146.022 14.4105H149.105V40.3705H146.022V14.4105Z" fill="#575756"/>
<path d="M156.535 33.8805H167.103V36.7405H153.288V15.8955H156.535V33.8805ZM171.781 14.4105H175.029V40.3705H171.781V26.4555H164.791V23.5955H171.781V14.4105Z" fill="#575756"/>
<path d="M179.102 18.8655V16.0055H194.733V18.8655H188.239L195.394 35.8605L192.532 37.0705L187.083 23.8155L181.634 37.2905L178.662 36.0255L185.872 18.8655H179.102ZM198.972 14.4105H202.219V40.3705H198.972V14.4105Z" fill="#575756"/>
<path d="M213.007 16.3904V13.7504H216.474V16.3904H222.584V19.0854H219.501C220.437 20.0754 220.878 21.2304 220.878 22.4404C220.878 23.1554 220.712 23.8704 220.382 24.5304C220.052 25.1904 219.612 25.7404 219.061 26.2354C218.291 26.8954 217.41 27.3904 216.309 27.6654V29.1504H223.079V31.9004H206.237V29.1504H213.117V27.6654C212.126 27.4454 211.245 26.9504 210.42 26.2904C209.869 25.7954 209.429 25.1904 209.099 24.5854C208.769 23.9254 208.603 23.2104 208.603 22.4954C208.603 21.2854 209.044 20.1304 209.979 19.1404H206.787V16.4454H213.007V16.3904ZM208.108 39.9854V33.5504H211.355V37.2904H228.858V39.9854H208.108ZM217.74 22.3854C217.74 21.5604 217.465 20.9004 216.86 20.2954C216.254 19.7454 215.594 19.4704 214.768 19.4704C213.942 19.4704 213.227 19.7454 212.676 20.2954C212.071 20.8454 211.796 21.5604 211.796 22.3854C211.796 23.2104 212.071 23.8704 212.676 24.4754C213.282 25.0254 213.942 25.3004 214.768 25.3004C215.594 25.3004 216.309 25.0254 216.86 24.4754C217.465 23.8704 217.74 23.2104 217.74 22.3854ZM228.308 33.3304H225.116V14.4104H228.363V22.2204H231.72V25.0804H228.363V33.3304H228.308Z" fill="#575756"/>
<path d="M246.912 27.5555H243.664V18.0405H234.307V15.1805H246.912V27.5555ZM255.663 34.8705C255.663 35.7505 255.498 36.5755 255.113 37.3455C254.727 38.1155 254.287 38.7755 253.682 39.3805C253.076 39.9855 252.361 40.4255 251.535 40.7555C250.709 41.0855 249.829 41.2505 248.948 41.2505C248.012 41.2505 247.132 41.0855 246.306 40.7555C245.481 40.4255 244.765 39.9855 244.105 39.3805C243.499 38.8305 243.004 38.1155 242.674 37.3455C242.288 36.5755 242.123 35.7505 242.123 34.8705C242.123 33.9905 242.288 33.1655 242.674 32.3955C243.059 31.6255 243.499 30.9655 244.105 30.3605C244.71 29.7555 245.426 29.3155 246.306 28.9855C247.132 28.6555 248.012 28.4905 248.948 28.4905C249.884 28.4905 250.709 28.6555 251.535 28.9855C252.361 29.3155 253.076 29.7555 253.682 30.3605C254.287 30.9105 254.782 31.6255 255.113 32.3955C255.498 33.2205 255.663 34.0455 255.663 34.8705ZM252.526 34.8705C252.526 33.8805 252.14 33.0555 251.425 32.3405C250.709 31.6255 249.884 31.2955 248.893 31.2955C247.902 31.2955 247.077 31.6255 246.361 32.3405C245.646 33.0555 245.315 33.8805 245.315 34.8705C245.315 35.8605 245.646 36.6855 246.361 37.4005C247.077 38.1155 247.902 38.4455 248.893 38.4455C249.884 38.4455 250.709 38.1155 251.425 37.4005C252.14 36.6855 252.526 35.8605 252.526 34.8705ZM253.461 14.4105H256.709V28.2155H253.461V24.9705H249.168V22.3305H253.461V19.9655H249.168V17.3255H253.461V14.4105Z" fill="#575756"/>
<path d="M261.112 30.8554H285V33.7154H274.652V40.3704H271.405V33.7154H261.112V30.8554ZM266.231 18.1504H279.881V14.8504H283.073V27.3354H263.039V14.9054H266.231V18.1504ZM279.881 20.9554H266.231V24.5304H279.881V20.9554Z" fill="#575756"/>
</svg>
