<svg width="252" height="55" viewBox="0 0 252 55" fill="none" xmlns="http://www.w3.org/2000/svg">
<g clip-path="url(#clip0_31_1467)">
<path d="M42.4571 26.2513C37.6842 22.9768 31.5792 24.3088 28.3602 29.1927C25.6963 33.2997 21.6448 33.7992 20.0353 33.7992C14.9294 33.7992 11.4329 30.1917 10.3784 26.4733C10.3784 26.4178 10.3784 26.4178 10.3229 26.3623C10.3229 26.3068 10.3229 26.3068 10.2674 26.2513C9.87891 24.6973 9.76791 23.9758 9.76791 22.3108C9.76791 13.4309 18.8698 3.49647 32.0232 3.49647C45.5096 3.49647 53.1685 13.7639 55.1665 19.4248C55.111 19.3138 55.111 19.2028 55.0555 19.1473C51.337 7.99193 40.7921 0 28.3602 0C12.7094 0 0 12.7094 0 28.3602C0 42.3461 10.1009 54.334 24.0868 54.334C35.2422 54.334 42.7901 48.0626 46.2311 39.4601C48.1181 34.7427 46.7861 29.1927 42.4571 26.2513Z" fill="#003863"/>
<path d="M55.444 20.0354C53.779 14.4854 46.0091 3.552 32.1342 3.552C18.9808 3.552 9.87891 13.4864 9.87891 22.3663C9.87891 24.0313 9.98991 24.7528 10.3784 26.3068C10.2119 25.6408 10.1009 24.9193 10.1009 24.3088C10.1009 15.0404 19.3693 8.60246 28.9152 8.60246C41.8466 8.60246 52.2805 19.0919 52.2805 31.9677C52.2805 42.0686 46.4531 50.8376 38.0172 55.0555C48.9506 51.1151 56.7205 40.6257 56.7205 28.3603C56.7205 25.4743 56.332 22.8658 55.444 20.0354Z" fill="#E4032E"/>
</g>
<path d="M81.3291 36.5117H78.6191V21.375H70.2695V18.9336H81.3291V36.5117ZM86.7734 17.5908H89.4834V39.3682H86.7734V17.5908ZM111.798 19.6416V21.9609H107.525C107.851 22.3353 108.119 22.7422 108.331 23.1816C108.624 23.8164 108.771 24.4837 108.771 25.1836C108.771 25.8835 108.616 26.5508 108.307 27.1855C108.014 27.8203 107.623 28.3737 107.135 28.8457C106.63 29.3014 106.036 29.6676 105.353 29.9443C104.685 30.221 103.969 30.3594 103.204 30.3594C102.439 30.3594 101.715 30.221 101.031 29.9443C100.364 29.6676 99.778 29.3014 99.2734 28.8457C98.7689 28.3737 98.3701 27.8203 98.0771 27.1855C97.7842 26.5508 97.6377 25.8835 97.6377 25.1836C97.6377 24.4837 97.7842 23.8164 98.0771 23.1816C98.2887 22.7422 98.5573 22.3353 98.8828 21.9609H94.6104V19.6416H101.739V17.249H104.645V19.6416H111.798ZM106.134 25.1836C106.134 24.3861 105.841 23.7025 105.255 23.1328C104.685 22.5632 104.002 22.2783 103.204 22.2783C102.407 22.2783 101.715 22.5632 101.129 23.1328C100.559 23.7025 100.274 24.3861 100.274 25.1836C100.274 25.9811 100.559 26.6647 101.129 27.2344C101.715 27.804 102.407 28.0889 103.204 28.0889C104.002 28.0889 104.685 27.804 105.255 27.2344C105.841 26.6647 106.134 25.9811 106.134 25.1836ZM93.1943 34.4854V32.1172H113.214V34.4854H104.547V39.3682H101.837V34.4854H93.1943ZM127.398 27.8936C127.317 28.2842 127.195 28.6748 127.032 29.0654C126.674 29.7979 126.218 30.4408 125.665 30.9941C125.079 31.5475 124.404 31.987 123.639 32.3125C122.874 32.638 122.052 32.8008 121.173 32.8008C120.31 32.8008 119.496 32.638 118.731 32.3125C117.966 31.987 117.291 31.5475 116.705 30.9941C116.135 30.4408 115.68 29.7979 115.338 29.0654C114.996 28.333 114.825 27.5518 114.825 26.7217C114.825 25.8916 114.996 25.1104 115.338 24.3779C115.68 23.6292 116.135 22.9863 116.705 22.4492C117.291 21.8958 117.966 21.4564 118.731 21.1309C119.496 20.8053 120.31 20.6426 121.173 20.6426C122.052 20.6426 122.874 20.8053 123.639 21.1309C124.404 21.4564 125.079 21.8958 125.665 22.4492C126.218 22.9863 126.674 23.6211 127.032 24.3535C127.195 24.7441 127.317 25.1429 127.398 25.5498H129.376V17.6152H131.915V39.2461H129.376V27.8936H127.398ZM124.859 26.7217C124.859 26.2171 124.754 25.7451 124.542 25.3057C124.347 24.8662 124.086 24.4756 123.761 24.1338C123.419 23.8083 123.028 23.5479 122.589 23.3525C122.149 23.141 121.677 23.0352 121.173 23.0352C120.685 23.0352 120.213 23.141 119.757 23.3525C119.317 23.5479 118.935 23.8083 118.609 24.1338C118.268 24.4756 117.999 24.8662 117.804 25.3057C117.608 25.7451 117.511 26.2171 117.511 26.7217C117.511 27.21 117.608 27.682 117.804 28.1377C117.999 28.5771 118.268 28.9596 118.609 29.2852C118.935 29.627 119.317 29.8955 119.757 30.0908C120.213 30.2861 120.685 30.3838 121.173 30.3838C121.677 30.3838 122.149 30.2861 122.589 30.0908C123.028 29.8955 123.419 29.627 123.761 29.2852C124.086 28.9596 124.347 28.5771 124.542 28.1377C124.754 27.682 124.859 27.21 124.859 26.7217ZM133.6 17.5908H136.212V39.3682H133.6V17.5908ZM142.413 33.875H151.251V36.2676H139.703V18.8115H142.413V33.875ZM155.182 17.5908H157.892V39.3682H155.182V27.6738H149.298V25.2568H155.182V17.5908ZM161.334 21.3262V18.9336H174.444V21.3262H168.951L174.957 35.5596L172.589 36.585L167.975 25.4521L163.434 36.7559L160.992 35.7305L167.022 21.3262H161.334ZM177.984 17.5908H180.694V39.3682H177.984V17.5908ZM189.703 19.2266V17.0049H192.633V19.2266H197.76V21.4971H195.196C195.489 21.8063 195.733 22.1644 195.929 22.5713C196.205 23.1247 196.344 23.7025 196.344 24.3047C196.344 24.9232 196.205 25.5091 195.929 26.0625C195.652 26.6159 195.278 27.096 194.806 27.5029C194.35 27.9261 193.821 28.2516 193.219 28.4795C192.991 28.5771 192.755 28.6585 192.511 28.7236V29.9199H198.199V32.2148H184.063V29.9199H189.825V28.6992C189.597 28.6504 189.386 28.5771 189.19 28.4795C188.572 28.2516 188.027 27.9261 187.555 27.5029C187.099 27.096 186.733 26.6159 186.456 26.0625C186.179 25.5091 186.041 24.9232 186.041 24.3047C186.041 23.7025 186.179 23.1247 186.456 22.5713C186.651 22.1644 186.896 21.8063 187.188 21.4971H184.552V19.2266H189.703ZM193.683 24.2314C193.683 23.5479 193.438 22.9701 192.95 22.498C192.462 22.026 191.876 21.79 191.192 21.79C190.509 21.79 189.915 22.026 189.41 22.498C188.922 22.9701 188.678 23.5479 188.678 24.2314C188.678 24.915 188.922 25.501 189.41 25.9893C189.915 26.4613 190.509 26.6973 191.192 26.6973C191.876 26.6973 192.462 26.4613 192.95 25.9893C193.438 25.501 193.683 24.915 193.683 24.2314ZM202.569 33.4111H199.859V17.5908H202.569V24.1338H205.353V26.5508H202.569V33.4111ZM185.602 39.002V33.582H188.312V36.707H202.96V39.002H185.602ZM218.146 28.5771H215.436V20.6182H207.599V18.2256H218.146V28.5771ZM223.59 17.5908H226.3V29.1387H223.59V26.4043H220.025V24.1826H223.59V22.1807H220.025V19.959H223.59V17.5908ZM225.47 34.7295C225.47 35.4619 225.315 36.1536 225.006 36.8047C224.713 37.4395 224.314 38.001 223.81 38.4893C223.305 38.9775 222.703 39.36 222.003 39.6367C221.319 39.9297 220.587 40.0762 219.806 40.0762C219.041 40.0762 218.308 39.9297 217.608 39.6367C216.909 39.36 216.306 38.9775 215.802 38.4893C215.297 38.001 214.89 37.4395 214.581 36.8047C214.288 36.1536 214.142 35.4619 214.142 34.7295C214.142 33.9971 214.288 33.3135 214.581 32.6787C214.89 32.0277 215.297 31.458 215.802 30.9697C216.306 30.4814 216.909 30.099 217.608 29.8223C218.308 29.5293 219.041 29.3828 219.806 29.3828C220.587 29.3828 221.319 29.5293 222.003 29.8223C222.703 30.099 223.305 30.4814 223.81 30.9697C224.314 31.458 224.713 32.0277 225.006 32.6787C225.315 33.3135 225.47 33.9971 225.47 34.7295ZM222.809 34.7051C222.809 33.8913 222.507 33.1914 221.905 32.6055C221.319 32.0195 220.611 31.7266 219.781 31.7266C218.967 31.7266 218.268 32.0195 217.682 32.6055C217.096 33.1914 216.803 33.8913 216.803 34.7051C216.803 35.5352 217.096 36.2432 217.682 36.8291C218.268 37.3988 218.967 37.6836 219.781 37.6836C220.611 37.6836 221.319 37.3988 221.905 36.8291C222.507 36.2432 222.809 35.5352 222.809 34.7051ZM234.283 20.7158H245.733V17.957H248.419V28.4307H231.622V17.957H234.283V20.7158ZM245.733 23.0596H234.283V26.0625H245.733V23.0596ZM230.011 31.3604H250.03V33.7529H241.363V39.3682H238.653V33.7529H230.011V31.3604Z" fill="#575756"/>
<defs>
<clipPath id="clip0_31_1467">
<rect width="143.522" height="55" fill="white"/>
</clipPath>
</defs>
</svg>
